<svg version="1.1" id="Layer_1" xmlns="http://www.w3.org/2000/svg" xmlns:xlink="http://www.w3.org/1999/xlink" x="0px" y="0px"
	 width="100%" viewBox="0 0 192 90" enable-background="new 0 0 192 90" xml:space="preserve">
<path fill="#000000" opacity="1.000000" stroke="none" 
	d="
M1.000000,30.000000 
	C1.000000,20.350555 1.000000,10.701110 1.000007,1.052180 
	C65.000015,1.052696 129.000031,1.052696 193.000000,1.052696 
	C193.000000,9.091142 193.000000,17.076891 192.559998,25.547647 
	C185.024429,25.873331 185.032883,25.873287 184.996277,18.752394 
	C184.980942,15.769665 185.065506,12.773632 184.787781,9.813375 
	C184.711349,8.998773 183.492599,8.291344 182.798019,7.534741 
	C182.242447,8.260302 181.275757,8.948599 181.206009,9.718184 
	C180.967377,12.351235 180.985657,15.013365 181.009689,17.663462 
	C181.138428,31.859241 179.377930,29.786373 193.000000,30.000000 
	C193.000000,50.300926 193.000000,70.601852 193.000000,90.951385 
	C129.000000,90.951385 65.000000,90.951385 1.000000,90.951385 
	C1.000000,83.915215 1.000000,76.926384 1.383060,69.413109 
	C4.870631,68.650017 6.001373,66.805252 5.992058,63.881187 
	C5.961475,54.281509 5.928140,44.681190 6.011958,35.082130 
	C6.042759,31.554691 4.609492,29.783350 1.000000,30.000000 
M27.258974,70.383690 
	C26.175938,68.137611 24.483212,65.978043 24.149441,63.625648 
	C23.617914,59.879478 24.172022,55.990429 23.868227,52.193714 
	C23.781631,51.111454 22.315277,50.139587 21.481636,49.117100 
	C20.660048,50.157120 19.177414,51.167164 19.128666,52.242222 
	C18.888174,57.546066 18.786844,62.881664 19.106592,68.177673 
	C19.377146,72.658897 23.339249,76.386551 27.697197,77.004631 
	C34.588863,77.982063 40.146152,76.072578 41.230156,71.016846 
	C42.527050,64.968201 42.507366,58.605618 42.642021,52.370026 
	C42.664936,51.308781 40.600292,50.202450 39.500072,49.116951 
	C38.668831,50.313435 37.214447,51.463173 37.120537,52.714977 
	C36.810726,56.844772 37.427727,61.077961 36.807182,65.136650 
	C36.485016,67.243774 34.308659,69.067398 32.728893,70.103508 
	C32.818584,64.473007 33.070496,58.837101 32.883247,53.215828 
	C32.836773,51.820549 31.368464,50.472637 30.553709,49.102951 
	C29.703352,50.447605 28.188639,51.758854 28.119055,53.142769 
	C27.836260,58.767086 27.996820,64.413696 27.258974,70.383690 
M36.288052,79.995628 
	C34.692875,79.731354 33.053848,79.119461 31.516470,79.313385 
	C30.298151,79.467079 28.506111,80.419174 28.249666,81.364288 
	C27.987484,82.330559 29.029503,84.504387 29.940765,84.802048 
	C38.178822,87.492897 49.419025,83.664032 50.863258,73.781311 
	C51.931107,66.474159 51.878860,58.975052 51.956593,51.557598 
	C52.099014,37.967533 45.209686,31.728891 31.603468,33.137222 
	C30.309164,33.271187 28.226273,35.333958 28.226057,36.501598 
	C28.225559,39.210770 30.085472,38.962418 32.458157,38.352825 
	C39.678024,36.497890 45.955822,41.689888 45.990913,49.189701 
	C46.020504,55.513733 46.003216,61.838017 45.995033,68.162178 
	C45.986668,74.629662 43.658188,77.720795 36.288052,79.995628 
M56.864616,25.591265 
	C61.509384,30.078892 63.918293,35.546581 63.993912,42.009121 
	C64.058083,47.493347 63.844040,52.995155 64.254166,58.451523 
	C64.364746,59.922726 66.299202,61.256836 67.396446,62.653873 
	C68.253998,61.243114 69.774719,59.867229 69.851059,58.415394 
	C70.138664,52.946003 70.263100,47.431168 69.894539,41.970757 
	C68.572548,22.384964 50.773304,9.633677 32.330036,15.042901 
	C30.794136,15.493366 29.668423,17.342409 28.352131,18.541658 
	C29.983150,19.090750 31.783455,20.389603 33.217400,20.065842 
	C41.781002,18.132318 49.293682,20.284687 56.864616,25.591265 
M86.280334,84.610657 
	C86.849640,83.163795 87.908707,81.719109 87.915115,80.269760 
	C88.018936,56.777817 88.037674,33.284954 87.876801,9.793660 
	C87.866455,8.284245 86.234451,6.785934 85.356819,5.282460 
	C84.576042,6.715366 83.123253,8.144294 83.114746,9.581770 
	C82.974731,33.239906 82.974525,56.899380 83.123680,80.557411 
	C83.132492,81.955956 84.670975,83.344856 86.280334,84.610657 
M44.007767,24.248138 
	C39.597057,24.291792 35.171516,24.159046 30.788111,24.527534 
	C29.908621,24.601467 29.189421,26.582169 28.396317,27.683704 
	C29.557337,28.361349 30.657150,29.217327 31.903887,29.645227 
	C32.578693,29.876835 33.497383,29.328421 34.317589,29.216248 
	C46.623638,27.533226 54.945774,34.781643 54.995018,47.241180 
	C55.022598,54.220089 54.807796,61.208473 55.137127,68.172020 
	C55.225830,70.047630 56.904686,71.848038 57.853615,73.682961 
	C58.899300,71.946121 60.760845,70.248802 60.847240,68.465485 
	C61.192581,61.337189 61.134331,54.178349 60.950329,47.037899 
	C60.653980,35.537872 55.182434,28.043974 44.007767,24.248138 
M44.256203,10.021732 
	C57.918617,11.100456 72.143524,19.877619 73.132057,37.698326 
	C73.186478,38.679329 73.323929,39.799568 73.840958,40.576771 
	C74.584488,41.694454 75.712341,42.556473 76.676155,43.527615 
	C77.432236,42.386818 78.379623,41.322777 78.878685,40.078865 
	C79.224663,39.216507 79.048111,38.096287 78.943481,37.108398 
	C76.229652,11.485134 52.433777,0.130213 31.143215,6.121849 
	C30.003202,6.442675 29.303804,8.329186 28.399294,9.486847 
	C29.761522,10.085634 31.141846,11.224227 32.482494,11.179284 
	C36.115295,11.057499 39.731258,10.433369 44.256203,10.021732 
M113.417603,56.982109 
	C114.575317,55.657761 116.423996,54.491547 116.769630,52.981339 
	C118.171837,46.854557 119.112297,40.622101 120.437981,33.230312 
	C111.994957,35.719227 116.405457,43.301353 112.507103,46.989307 
	C111.962692,44.095501 111.359688,41.559784 111.028625,38.989048 
	C110.368484,33.862988 109.619102,33.352360 104.381004,34.792984 
	C103.510040,39.162579 102.649788,43.478420 101.563393,48.928852 
	C100.571060,44.152477 99.563644,40.650459 99.175331,37.081097 
	C98.726799,32.958221 96.653992,33.831917 94.017982,34.741669 
	C95.283691,40.808323 96.848381,46.543739 97.588669,52.383663 
	C98.246338,57.571819 100.785706,57.697945 104.428787,56.409840 
	C105.335670,52.081127 106.174561,48.076916 107.013458,44.072704 
	C108.278564,47.137657 108.409073,50.154072 109.266891,52.947102 
	C109.739502,54.485909 111.434280,55.649349 113.417603,56.982109 
M14.359904,20.608200 
	C10.692761,17.675821 10.065248,20.259640 10.054981,23.156166 
	C9.991397,41.094746 9.978046,59.034073 10.129648,76.971611 
	C10.140196,78.219658 11.616561,79.455307 12.411283,80.696724 
	C13.262671,79.515022 14.851122,78.335846 14.855194,77.151230 
	C14.919096,58.556278 14.778832,39.960625 14.359904,20.608200 
M119.001785,72.485947 
	C118.983749,69.821579 119.145844,67.137581 118.858559,64.502571 
	C118.744530,63.456650 117.633781,62.519402 116.976830,61.532677 
	C116.334206,62.534191 115.233559,63.493790 115.137329,64.545311 
	C114.878609,67.372475 115.048958,70.238892 115.048958,73.089729 
	C112.632278,69.938622 111.545166,66.583481 109.805138,63.610477 
	C109.084251,62.378773 106.961609,61.392181 105.485023,61.403591 
	C104.659035,61.409973 103.227135,63.649788 103.146477,64.950119 
	C102.858315,69.595390 102.863632,74.279190 103.138214,78.925934 
	C103.214783,80.221870 104.602867,81.440308 105.389297,82.694298 
	C106.253540,81.352028 107.585526,80.101776 107.871941,78.645836 
	C108.297112,76.484550 107.982018,74.177635 107.982018,71.932709 
	C109.568886,73.253349 110.344307,74.669022 111.023056,76.129601 
	C111.723259,77.636383 112.062340,79.399902 113.060585,80.651337 
	C113.869629,81.665596 115.513489,82.729576 116.615440,82.571899 
	C117.524261,82.441864 118.609421,80.639946 118.852295,79.426025 
	C119.237366,77.501427 118.984657,75.449234 119.001785,72.485947 
M146.385086,50.529358 
	C147.554214,50.685978 149.122437,50.431290 149.802856,51.091537 
	C150.944290,52.199120 151.297379,54.104771 152.412521,55.258778 
	C153.156342,56.028515 154.646805,56.076744 155.803131,56.447876 
	C155.900925,55.400776 156.447922,54.092106 156.017334,53.352684 
	C154.319809,50.437531 155.181976,48.022137 156.077499,44.996044 
	C156.883026,42.274132 156.377869,36.924580 154.826370,36.196712 
	C151.255249,34.521370 146.700058,34.894646 142.532150,34.618824 
	C142.130966,34.592274 141.270004,35.834843 141.257584,36.500122 
	C141.146164,42.467129 141.095703,48.439106 141.264709,54.402889 
	C141.286926,55.186943 142.596939,56.466602 143.400208,56.540409 
	C144.140640,56.608444 145.314194,55.513134 145.727539,54.655727 
	C146.201721,53.672138 146.049042,52.386333 146.385086,50.529358 
M94.997353,11.664576 
	C94.997353,17.734493 94.997353,23.804409 94.997353,29.999201 
	C98.624329,29.999201 101.453377,30.106958 104.271210,29.975100 
	C109.045677,29.751684 110.959511,27.655813 110.998512,22.817051 
	C111.022636,19.823936 110.841156,16.819702 111.039581,13.839609 
	C111.360855,9.014391 108.433830,7.471055 104.439331,7.038297 
	C102.466858,6.824602 100.432396,7.177535 98.461342,6.957441 
	C95.436440,6.619673 94.630295,8.050746 94.997353,11.664576 
M131.134323,29.965778 
	C133.345184,29.284988 137.100174,29.060022 137.462250,27.833471 
	C138.360611,24.790228 137.939789,21.259621 137.514236,17.994459 
	C137.411789,17.208317 135.269302,16.297762 133.993973,16.173542 
	C132.898300,16.066820 131.701294,17.000662 130.549088,17.474369 
	C131.110458,18.354927 131.979401,19.175770 132.164536,20.129374 
	C132.480286,21.755816 132.366745,23.465601 132.433548,25.140377 
	C130.692871,24.796141 127.856407,24.949762 127.428932,24.008894 
	C126.388504,21.718864 126.050148,18.890373 126.237900,16.338257 
	C126.365067,14.609797 127.543007,12.568150 128.905762,11.509279 
	C129.467239,11.073006 131.703400,12.952202 133.257980,13.579689 
	C134.364517,14.026335 135.605026,14.141127 136.785736,14.404020 
	C136.947113,13.196852 137.605850,11.739716 137.154037,10.840713 
	C136.464752,9.469172 135.212814,7.958047 133.841888,7.422723 
	C127.005417,4.753201 122.216293,8.070765 122.016624,15.385303 
	C121.962067,17.383408 121.969025,19.385029 122.012482,21.383629 
	C122.152725,27.833982 123.725861,29.447109 131.134323,29.965778 
M138.887344,75.943466 
	C139.366333,62.123013 137.802780,60.203796 127.180824,60.974567 
	C124.250778,61.187183 122.967644,62.352100 123.008766,65.254936 
	C123.072350,69.743584 122.900452,74.239433 123.102699,78.719841 
	C123.161530,80.023125 123.800011,81.871742 124.780869,82.464973 
	C129.541763,85.344398 136.936890,82.217422 138.887344,75.943466 
M174.481461,28.937790 
	C176.541229,30.119913 178.819855,30.790495 178.044174,27.214506 
	C176.743164,21.216671 175.052811,15.279763 173.119492,9.452174 
	C172.096786,6.369412 168.166061,6.047688 167.134262,8.956647 
	C164.792511,15.558859 163.080688,22.384510 161.112778,29.119324 
	C161.661942,29.452990 162.211090,29.786655 162.760254,30.120323 
	C163.917099,29.316034 165.314026,28.713022 166.187531,27.671179 
	C169.287659,23.973623 171.047913,24.061396 174.481461,28.937790 
M138.002029,45.496101 
	C137.985214,43.666328 138.059052,41.830269 137.932617,40.008102 
	C137.673950,36.280022 135.597794,34.361919 131.876297,34.029190 
	C124.610336,33.379559 122.136269,35.557110 122.008957,42.888039 
	C121.974304,44.883732 121.953720,46.882500 122.021530,48.876637 
	C122.264946,56.035423 128.906403,59.537052 135.099136,55.845573 
	C138.950836,53.549583 137.764404,49.788948 138.002029,45.496101 
M161.392151,82.062294 
	C163.409851,83.012260 165.806290,83.830147 165.040741,80.238838 
	C163.831696,74.566978 162.218658,68.957657 160.385742,63.451996 
	C159.424164,60.563633 155.082916,59.988380 154.127701,62.603828 
	C151.790588,69.003029 150.183685,75.668907 148.282898,82.227448 
	C148.728989,82.518410 149.175095,82.809372 149.621185,83.100327 
	C150.821548,82.506500 152.349457,82.198647 153.162872,81.266983 
	C155.969559,78.052261 158.430878,78.301926 161.392151,82.062294 
M168.691895,54.023388 
	C170.207809,56.104107 171.764893,58.026695 174.953323,55.454372 
	C173.585052,53.392971 172.529709,51.313820 171.024796,49.638515 
	C167.977997,46.246750 168.339447,43.295376 171.332092,40.092762 
	C172.672791,38.658001 173.468140,36.713646 174.510971,35.000546 
	C173.977249,34.483643 173.443512,33.966736 172.909790,33.449833 
	C170.467316,35.388432 168.024841,37.327030 166.093613,38.859859 
	C164.802170,37.352909 163.498642,35.831871 162.195129,34.310829 
	C161.463272,36.286667 160.288696,38.220554 160.096588,40.247547 
	C159.752625,43.877003 159.766510,47.583797 160.097260,51.215790 
	C160.267212,53.082119 161.267212,56.305630 162.195663,56.418488 
	C165.926865,56.872032 164.540970,53.410839 165.125580,51.432392 
	C165.206085,51.160004 165.468964,50.941498 165.864716,50.401550 
	C166.723175,51.477665 167.512985,52.467716 168.691895,54.023388 
M24.000404,25.521729 
	C23.995237,22.705872 24.290337,19.844246 23.870739,17.091562 
	C23.624451,15.475824 22.240885,14.033444 21.368876,12.513086 
	C20.585939,13.960025 19.160851,15.391443 19.125448,16.856447 
	C18.913414,25.630127 18.913479,34.414173 19.128099,43.187756 
	C19.163763,44.645679 20.602329,46.069290 21.392601,47.508755 
	C22.256767,45.976959 23.775743,44.482815 23.866375,42.906544 
	C24.179647,37.458160 23.995304,31.981171 24.000404,25.521729 
M156.973663,29.206381 
	C157.314117,25.798592 157.662888,22.391609 157.992599,18.982784 
	C158.305893,15.743810 156.658890,11.651095 161.719101,10.499818 
	C161.407974,9.402948 161.165771,7.382864 160.774918,7.353682 
	C157.310501,7.095008 153.817062,7.116854 150.339249,7.245912 
	C149.715637,7.269053 148.768082,8.079652 148.623398,8.683269 
	C148.491562,9.233222 149.132767,10.469831 149.629623,10.589684 
	C153.541031,11.533229 152.964264,14.581364 152.994003,17.360695 
	C153.026016,20.352018 152.722275,23.393126 153.192032,26.311588 
	C153.389099,27.535969 155.198013,28.500908 156.973663,29.206381 
M118.915833,10.060403 
	C117.985954,9.156256 117.056076,8.252110 116.126198,7.347959 
	C115.429810,8.503765 114.187157,9.634245 114.132195,10.819790 
	C113.901978,15.785731 113.840324,20.779715 114.145523,25.737034 
	C114.229271,27.097275 115.801590,28.365871 116.690834,29.676523 
	C117.452423,28.408127 118.803169,27.170361 118.870987,25.865898 
	C119.129005,20.902922 118.972687,15.918403 118.915833,10.060403 
M141.499466,28.552071 
	C144.393890,30.897343 145.777206,29.511679 145.893143,26.480989 
	C146.089767,21.341425 146.118271,16.181944 145.865433,11.048171 
	C145.802353,9.767230 144.395309,8.552476 143.605988,7.307301 
	C142.744217,8.651853 141.198303,9.968032 141.141174,11.345954 
	C140.914627,16.808884 141.153671,22.291122 141.499466,28.552071 
M95.000519,78.273903 
	C95.094574,79.726616 95.188622,81.179337 95.306900,83.006332 
	C97.033195,82.840996 98.396156,82.710457 99.675453,82.587929 
	C99.675453,75.200981 99.675453,68.282974 99.675453,60.977718 
	C97.949989,61.153957 96.586601,61.293217 95.000084,61.455261 
	C95.000084,67.035995 95.000084,72.178757 95.000519,78.273903 
M146.000000,74.410217 
	C145.994293,71.412361 146.197937,68.392700 145.888855,65.426453 
	C145.748032,64.074951 144.594284,62.828999 143.899979,61.535172 
	C143.271225,62.896091 142.223206,64.219986 142.099091,65.625465 
	C141.821747,68.765770 141.733307,71.977509 142.086700,75.101448 
	C142.369461,77.600883 143.417526,80.013748 144.125961,82.465034 
	C144.750595,80.096619 145.375244,77.728203 146.000000,74.410217 
M19.326010,83.555351 
	C20.544182,83.884689 21.762354,84.214035 22.980528,84.543373 
	C23.226095,82.982666 23.758116,81.387993 23.579058,79.877625 
	C23.505371,79.256081 21.901320,78.815964 20.993366,78.293327 
	C20.379017,79.809822 19.764669,81.326324 19.326010,83.555351 
M32.133892,42.400719 
	C30.769236,43.229439 29.404581,44.058159 28.039927,44.886883 
	C28.856411,45.898785 29.672895,46.910690 30.489380,47.922592 
	C31.216091,46.276745 31.942801,44.630898 32.133892,42.400719 
z"/>
<path fill="#201E1E" opacity="1.000000" stroke="none" 
	d="
M1.000000,30.468658 
	C4.609492,29.783350 6.042759,31.554691 6.011958,35.082130 
	C5.928140,44.681190 5.961475,54.281509 5.992058,63.881187 
	C6.001373,66.805252 4.870631,68.650017 1.383060,68.944328 
	C1.000000,56.312439 1.000000,43.624878 1.000000,30.468658 
z"/>
<path fill="#201E1E" opacity="1.000000" stroke="none" 
	d="
M193.000000,29.600004 
	C179.377930,29.786373 181.138428,31.859241 181.009689,17.663462 
	C180.985657,15.013365 180.967377,12.351235 181.206009,9.718184 
	C181.275757,8.948599 182.242447,8.260302 182.798019,7.534741 
	C183.492599,8.291344 184.711349,8.998773 184.787781,9.813375 
	C185.065506,12.773632 184.980942,15.769665 184.996277,18.752394 
	C185.032883,25.873287 185.024429,25.873331 192.559998,26.016327 
	C193.000000,27.066669 193.000000,28.133339 193.000000,29.600004 
z"/>
<path fill="#E76734" opacity="1.000000" stroke="none" 
	d="
M36.699608,79.992661 
	C43.658188,77.720795 45.986668,74.629662 45.995033,68.162178 
	C46.003216,61.838017 46.020504,55.513733 45.990913,49.189701 
	C45.955822,41.689888 39.678024,36.497890 32.458157,38.352825 
	C30.085472,38.962418 28.225559,39.210770 28.226057,36.501598 
	C28.226273,35.333958 30.309164,33.271187 31.603468,33.137222 
	C45.209686,31.728891 52.099014,37.967533 51.956593,51.557598 
	C51.878860,58.975052 51.931107,66.474159 50.863258,73.781311 
	C49.419025,83.664032 38.178822,87.492897 29.940765,84.802048 
	C29.029503,84.504387 27.987484,82.330559 28.249666,81.364288 
	C28.506111,80.419174 30.298151,79.467079 31.516470,79.313385 
	C33.053848,79.119461 34.692875,79.731354 36.699608,79.992661 
z"/>
<path fill="#1F1D1D" opacity="1.000000" stroke="none" 
	d="
M56.566334,25.384476 
	C49.293682,20.284687 41.781002,18.132318 33.217400,20.065842 
	C31.783455,20.389603 29.983150,19.090750 28.352131,18.541658 
	C29.668423,17.342409 30.794136,15.493366 32.330036,15.042901 
	C50.773304,9.633677 68.572548,22.384964 69.894539,41.970757 
	C70.263100,47.431168 70.138664,52.946003 69.851059,58.415394 
	C69.774719,59.867229 68.253998,61.243114 67.396454,62.653877 
	C66.299202,61.256836 64.364746,59.922726 64.254166,58.451523 
	C63.844040,52.995155 64.058083,47.493347 63.993912,42.009121 
	C63.918293,35.546581 61.509384,30.078892 56.566334,25.384476 
z"/>
<path fill="#201E1E" opacity="1.000000" stroke="none" 
	d="
M85.888985,84.674454 
	C84.670975,83.344856 83.132492,81.955956 83.123680,80.557411 
	C82.974525,56.899380 82.974731,33.239906 83.114746,9.581770 
	C83.123253,8.144294 84.576042,6.715366 85.356827,5.282459 
	C86.234451,6.785934 87.866455,8.284245 87.876801,9.793660 
	C88.037674,33.284954 88.018936,56.777817 87.915115,80.269760 
	C87.908707,81.719109 86.849640,83.163795 85.888985,84.674454 
z"/>
<path fill="#201E1E" opacity="1.000000" stroke="none" 
	d="
M44.395531,24.355030 
	C55.182434,28.043974 60.653980,35.537872 60.950329,47.037899 
	C61.134331,54.178349 61.192581,61.337189 60.847240,68.465485 
	C60.760845,70.248802 58.899300,71.946121 57.853615,73.682961 
	C56.904686,71.848038 55.225830,70.047630 55.137127,68.172020 
	C54.807796,61.208473 55.022598,54.220089 54.995018,47.241180 
	C54.945774,34.781643 46.623638,27.533226 34.317589,29.216248 
	C33.497383,29.328421 32.578693,29.876835 31.903887,29.645227 
	C30.657150,29.217327 29.557337,28.361349 28.396317,27.683704 
	C29.189421,26.582169 29.908621,24.601467 30.788111,24.527534 
	C35.171516,24.159046 39.597057,24.291792 44.395531,24.355030 
z"/>
<path fill="#1F1D1D" opacity="1.000000" stroke="none" 
	d="
M43.805050,10.015091 
	C39.731258,10.433369 36.115295,11.057499 32.482494,11.179284 
	C31.141846,11.224227 29.761522,10.085634 28.399294,9.486847 
	C29.303804,8.329186 30.003202,6.442675 31.143215,6.121849 
	C52.433777,0.130213 76.229652,11.485134 78.943481,37.108398 
	C79.048111,38.096287 79.224663,39.216507 78.878685,40.078865 
	C78.379623,41.322777 77.432236,42.386818 76.676155,43.527615 
	C75.712341,42.556473 74.584488,41.694454 73.840958,40.576771 
	C73.323929,39.799568 73.186478,38.679329 73.132057,37.698326 
	C72.143524,19.877619 57.918617,11.100456 43.805050,10.015091 
z"/>
<path fill="#199A4D" opacity="1.000000" stroke="none" 
	d="
M112.997833,56.982063 
	C111.434280,55.649349 109.739502,54.485909 109.266891,52.947102 
	C108.409073,50.154072 108.278564,47.137657 107.013458,44.072704 
	C106.174561,48.076916 105.335670,52.081127 104.428787,56.409840 
	C100.785706,57.697945 98.246338,57.571819 97.588669,52.383663 
	C96.848381,46.543739 95.283691,40.808323 94.017982,34.741669 
	C96.653992,33.831917 98.726799,32.958221 99.175331,37.081097 
	C99.563644,40.650459 100.571060,44.152477 101.563393,48.928852 
	C102.649788,43.478420 103.510040,39.162579 104.381004,34.792984 
	C109.619102,33.352360 110.368484,33.862988 111.028625,38.989048 
	C111.359688,41.559784 111.962692,44.095501 112.507103,46.989307 
	C116.405457,43.301353 111.994957,35.719227 120.437981,33.230312 
	C119.112297,40.622101 118.171837,46.854557 116.769630,52.981339 
	C116.423996,54.491547 114.575317,55.657761 112.997833,56.982063 
z"/>
<path fill="#189A4C" opacity="1.000000" stroke="none" 
	d="
M32.969925,71.019089 
	C34.308659,69.067398 36.485016,67.243774 36.807182,65.136650 
	C37.427727,61.077961 36.810726,56.844772 37.120537,52.714977 
	C37.214447,51.463173 38.668831,50.313435 39.500076,49.116951 
	C40.600292,50.202450 42.664936,51.308781 42.642021,52.370026 
	C42.507366,58.605618 42.527050,64.968201 41.230156,71.016846 
	C40.146152,76.072578 34.588863,77.982063 27.697197,77.004631 
	C23.339249,76.386551 19.377146,72.658897 19.106592,68.177673 
	C18.786844,62.881664 18.888174,57.546066 19.128666,52.242222 
	C19.177414,51.167164 20.660048,50.157120 21.481636,49.117100 
	C22.315277,50.139587 23.781631,51.111454 23.868227,52.193714 
	C24.172022,55.990429 23.617914,59.879478 24.149441,63.625648 
	C24.483212,65.978043 26.175938,68.137611 27.600216,70.193619 
	C27.941458,70.003548 27.966162,69.936485 27.856112,70.316788 
	C29.511824,70.775909 31.277584,70.854736 33.046265,70.973206 
	C33.049179,71.012848 32.969925,71.019089 32.969925,71.019089 
z"/>
<path fill="#201E1E" opacity="1.000000" stroke="none" 
	d="
M14.522715,20.986668 
	C14.778832,39.960625 14.919096,58.556278 14.855194,77.151230 
	C14.851122,78.335846 13.262671,79.515022 12.411282,80.696724 
	C11.616561,79.455307 10.140196,78.219658 10.129648,76.971611 
	C9.978046,59.034073 9.991397,41.094746 10.054981,23.156166 
	C10.065248,20.259640 10.692761,17.675821 14.522715,20.986668 
z"/>
<path fill="#201E1E" opacity="1.000000" stroke="none" 
	d="
M119.001785,72.968483 
	C118.984657,75.449234 119.237366,77.501427 118.852295,79.426025 
	C118.609421,80.639946 117.524261,82.441864 116.615440,82.571899 
	C115.513489,82.729576 113.869629,81.665596 113.060585,80.651337 
	C112.062340,79.399902 111.723259,77.636383 111.023056,76.129601 
	C110.344307,74.669022 109.568886,73.253349 107.982018,71.932709 
	C107.982018,74.177635 108.297112,76.484550 107.871941,78.645836 
	C107.585526,80.101776 106.253540,81.352028 105.389297,82.694298 
	C104.602867,81.440308 103.214783,80.221870 103.138214,78.925934 
	C102.863632,74.279190 102.858315,69.595390 103.146477,64.950119 
	C103.227135,63.649788 104.659035,61.409973 105.485023,61.403591 
	C106.961609,61.392181 109.084251,62.378773 109.805138,63.610477 
	C111.545166,66.583481 112.632278,69.938622 115.048958,73.089729 
	C115.048958,70.238892 114.878609,67.372475 115.137329,64.545311 
	C115.233559,63.493790 116.334206,62.534191 116.976830,61.532677 
	C117.633781,62.519402 118.744530,63.456650 118.858559,64.502571 
	C119.145844,67.137581 118.983749,69.821579 119.001785,72.968483 
z"/>
<path fill="#201E1E" opacity="1.000000" stroke="none" 
	d="
M146.276886,50.880585 
	C146.049042,52.386333 146.201721,53.672138 145.727539,54.655727 
	C145.314194,55.513134 144.140640,56.608444 143.400208,56.540409 
	C142.596939,56.466602 141.286926,55.186943 141.264709,54.402889 
	C141.095703,48.439106 141.146164,42.467129 141.257584,36.500122 
	C141.270004,35.834843 142.130966,34.592274 142.532150,34.618824 
	C146.700058,34.894646 151.255249,34.521370 154.826370,36.196712 
	C156.377869,36.924580 156.883026,42.274132 156.077499,44.996044 
	C155.181976,48.022137 154.319809,50.437531 156.017334,53.352684 
	C156.447922,54.092106 155.900925,55.400776 155.803131,56.447876 
	C154.646805,56.076744 153.156342,56.028515 152.412521,55.258778 
	C151.297379,54.104771 150.944290,52.199120 149.802856,51.091537 
	C149.122437,50.431290 147.554214,50.685978 146.276886,50.880585 
M146.117661,40.739269 
	C146.918793,42.088039 147.719925,43.436810 148.521057,44.785580 
	C149.552155,44.148506 151.230118,43.684353 151.457825,42.832516 
	C151.773651,41.651077 151.000168,40.178440 150.693069,38.830479 
	C149.214615,39.213196 147.736160,39.595913 146.117661,40.739269 
z"/>
<path fill="#E76734" opacity="1.000000" stroke="none" 
	d="
M94.997665,11.184889 
	C94.630295,8.050746 95.436440,6.619673 98.461342,6.957441 
	C100.432396,7.177535 102.466858,6.824602 104.439331,7.038297 
	C108.433830,7.471055 111.360855,9.014391 111.039581,13.839609 
	C110.841156,16.819702 111.022636,19.823936 110.998512,22.817051 
	C110.959511,27.655813 109.045677,29.751684 104.271210,29.975100 
	C101.453377,30.106958 98.624329,29.999201 94.997353,29.999201 
	C94.997353,23.804409 94.997353,17.734493 94.997665,11.184889 
M103.160118,11.014440 
	C102.110062,11.810724 100.221771,12.541019 100.153000,13.414554 
	C99.830956,17.505344 100.009956,21.635580 100.009956,25.751724 
	C100.428185,26.111958 100.846405,26.472189 101.264633,26.832420 
	C103.107857,25.427206 106.358856,24.162535 106.515945,22.588982 
	C106.902786,18.714178 109.205292,13.898237 103.160118,11.014440 
z"/>
<path fill="#201E1E" opacity="1.000000" stroke="none" 
	d="
M130.730408,29.973410 
	C123.725861,29.447109 122.152725,27.833982 122.012482,21.383629 
	C121.969025,19.385029 121.962067,17.383408 122.016624,15.385303 
	C122.216293,8.070765 127.005417,4.753201 133.841888,7.422723 
	C135.212814,7.958047 136.464752,9.469172 137.154037,10.840713 
	C137.605850,11.739716 136.947113,13.196852 136.785736,14.404020 
	C135.605026,14.141127 134.364517,14.026335 133.257980,13.579689 
	C131.703400,12.952202 129.467239,11.073006 128.905762,11.509279 
	C127.543007,12.568150 126.365067,14.609797 126.237900,16.338257 
	C126.050148,18.890373 126.388504,21.718864 127.428932,24.008894 
	C127.856407,24.949762 130.692871,24.796141 132.433548,25.140377 
	C132.366745,23.465601 132.480286,21.755816 132.164536,20.129374 
	C131.979401,19.175770 131.110458,18.354927 130.549088,17.474369 
	C131.701294,17.000662 132.898300,16.066820 133.993973,16.173542 
	C135.269302,16.297762 137.411789,17.208317 137.514236,17.994459 
	C137.939789,21.259621 138.360611,24.790228 137.462250,27.833471 
	C137.100174,29.060022 133.345184,29.284988 130.730408,29.973410 
z"/>
<path fill="#201E1E" opacity="1.000000" stroke="none" 
	d="
M138.826630,76.370972 
	C136.936890,82.217422 129.541763,85.344398 124.780869,82.464973 
	C123.800011,81.871742 123.161530,80.023125 123.102699,78.719841 
	C122.900452,74.239433 123.072350,69.743584 123.008766,65.254936 
	C122.967644,62.352100 124.250778,61.187183 127.180824,60.974567 
	C137.802780,60.203796 139.366333,62.123013 138.826630,76.370972 
M131.208832,78.783401 
	C133.911438,76.655792 135.247055,68.538872 133.032867,66.364693 
	C132.229813,65.576172 130.540344,65.072853 129.484863,65.341446 
	C128.526398,65.585342 127.326935,66.986603 127.203171,67.996460 
	C126.881432,70.621597 126.766487,73.372192 127.241692,75.948669 
	C127.449875,77.077400 129.297424,77.903763 131.208832,78.783401 
z"/>
<path fill="#201E1E" opacity="1.000000" stroke="none" 
	d="
M174.284576,28.633148 
	C171.047913,24.061396 169.287659,23.973623 166.187531,27.671179 
	C165.314026,28.713022 163.917099,29.316034 162.760254,30.120323 
	C162.211090,29.786655 161.661942,29.452990 161.112778,29.119324 
	C163.080688,22.384510 164.792511,15.558859 167.134262,8.956647 
	C168.166061,6.047688 172.096786,6.369412 173.119492,9.452174 
	C175.052811,15.279763 176.743164,21.216671 178.044174,27.214506 
	C178.819855,30.790495 176.541229,30.119913 174.284576,28.633148 
z"/>
<path fill="#201E1E" opacity="1.000000" stroke="none" 
	d="
M138.002014,45.961407 
	C137.764404,49.788948 138.950836,53.549583 135.099136,55.845573 
	C128.906403,59.537052 122.264946,56.035423 122.021530,48.876637 
	C121.953720,46.882500 121.974304,44.883732 122.008957,42.888039 
	C122.136269,35.557110 124.610336,33.379559 131.876297,34.029190 
	C135.597794,34.361919 137.673950,36.280022 137.932617,40.008102 
	C138.059052,41.830269 137.985214,43.666328 138.002014,45.961407 
M131.854858,52.256641 
	C135.426010,48.608963 134.233597,44.261833 133.136169,40.232296 
	C132.882294,39.300087 129.987335,39.087162 128.307709,38.543255 
	C127.615028,41.640228 126.415413,44.733093 126.390297,47.835472 
	C126.370262,50.310669 127.266762,53.331829 131.854858,52.256641 
z"/>
<path fill="#1F1D1D" opacity="1.000000" stroke="none" 
	d="
M161.152008,81.790886 
	C158.430878,78.301926 155.969559,78.052261 153.162872,81.266983 
	C152.349457,82.198647 150.821548,82.506500 149.621185,83.100327 
	C149.175095,82.809372 148.728989,82.518410 148.282898,82.227448 
	C150.183685,75.668907 151.790588,69.003029 154.127701,62.603828 
	C155.082916,59.988380 159.424164,60.563633 160.385742,63.451996 
	C162.218658,68.957657 163.831696,74.566978 165.040741,80.238838 
	C165.806290,83.830147 163.409851,83.012260 161.152008,81.790886 
z"/>
<path fill="#201E1E" opacity="1.000000" stroke="none" 
	d="
M168.497345,53.740578 
	C167.512985,52.467716 166.723175,51.477665 165.864716,50.401550 
	C165.468964,50.941498 165.206085,51.160004 165.125580,51.432392 
	C164.540970,53.410839 165.926865,56.872032 162.195663,56.418488 
	C161.267212,56.305630 160.267212,53.082119 160.097260,51.215790 
	C159.766510,47.583797 159.752625,43.877003 160.096588,40.247547 
	C160.288696,38.220554 161.463272,36.286667 162.195129,34.310829 
	C163.498642,35.831871 164.802170,37.352909 166.093613,38.859859 
	C168.024841,37.327030 170.467316,35.388432 172.909790,33.449833 
	C173.443512,33.966736 173.977249,34.483643 174.510971,35.000546 
	C173.468140,36.713646 172.672791,38.658001 171.332092,40.092762 
	C168.339447,43.295376 167.977997,46.246750 171.024796,49.638515 
	C172.529709,51.313820 173.585052,53.392971 174.953323,55.454372 
	C171.764893,58.026695 170.207809,56.104107 168.497345,53.740578 
z"/>
<path fill="#201E1E" opacity="1.000000" stroke="none" 
	d="
M24.000404,26.018400 
	C23.995304,31.981171 24.179647,37.458160 23.866375,42.906544 
	C23.775743,44.482815 22.256767,45.976959 21.392601,47.508755 
	C20.602329,46.069290 19.163763,44.645679 19.128099,43.187756 
	C18.913479,34.414173 18.913414,25.630127 19.125448,16.856447 
	C19.160851,15.391443 20.585939,13.960025 21.368876,12.513086 
	C22.240885,14.033444 23.624451,15.475824 23.870739,17.091562 
	C24.290337,19.844246 23.995237,22.705872 24.000404,26.018400 
z"/>
<path fill="#1F1D1D" opacity="1.000000" stroke="none" 
	d="
M156.623901,29.395088 
	C155.198013,28.500908 153.389099,27.535969 153.192032,26.311588 
	C152.722275,23.393126 153.026016,20.352018 152.994003,17.360695 
	C152.964264,14.581364 153.541031,11.533229 149.629623,10.589684 
	C149.132767,10.469831 148.491562,9.233222 148.623398,8.683269 
	C148.768082,8.079652 149.715637,7.269053 150.339249,7.245912 
	C153.817062,7.116854 157.310501,7.095008 160.774918,7.353682 
	C161.165771,7.382864 161.407974,9.402948 161.719101,10.499818 
	C156.658890,11.651095 158.305893,15.743810 157.992599,18.982784 
	C157.662888,22.391609 157.314117,25.798592 156.623901,29.395088 
z"/>
<path fill="#1F1D1D" opacity="1.000000" stroke="none" 
	d="
M118.943527,10.501169 
	C118.972687,15.918403 119.129005,20.902922 118.870987,25.865898 
	C118.803169,27.170361 117.452423,28.408127 116.690842,29.676523 
	C115.801590,28.365871 114.229271,27.097275 114.145523,25.737034 
	C113.840324,20.779715 113.901978,15.785731 114.132195,10.819790 
	C114.187157,9.634245 115.429810,8.503765 116.126198,7.347961 
	C117.056076,8.252110 117.985954,9.156256 118.943527,10.501169 
z"/>
<path fill="#1F1D1D" opacity="1.000000" stroke="none" 
	d="
M141.359802,28.159138 
	C141.153671,22.291122 140.914627,16.808884 141.141174,11.345954 
	C141.198303,9.968032 142.744217,8.651853 143.605988,7.307301 
	C144.395309,8.552476 145.802353,9.767230 145.865433,11.048171 
	C146.118271,16.181944 146.089767,21.341425 145.893143,26.480989 
	C145.777206,29.511679 144.393890,30.897343 141.359802,28.159138 
z"/>
<path fill="#0F63A3" opacity="1.000000" stroke="none" 
	d="
M95.000305,77.797714 
	C95.000084,72.178757 95.000084,67.035995 95.000084,61.455261 
	C96.586601,61.293217 97.949989,61.153957 99.675453,60.977718 
	C99.675453,68.282974 99.675453,75.200981 99.675453,82.587929 
	C98.396156,82.710457 97.033195,82.840996 95.306900,83.006332 
	C95.188622,81.179337 95.094574,79.726616 95.000305,77.797714 
z"/>
<path fill="#0F63A3" opacity="1.000000" stroke="none" 
	d="
M27.967686,70.027817 
	C27.996820,64.413696 27.836260,58.767086 28.119055,53.142769 
	C28.188639,51.758854 29.703352,50.447605 30.553709,49.102951 
	C31.368464,50.472637 32.836773,51.820549 32.883247,53.215828 
	C33.070496,58.837101 32.818584,64.473007 32.849411,70.561295 
	C32.969925,71.019089 33.049179,71.012848 32.707489,70.758522 
	C30.899254,70.314957 29.432709,70.125717 27.966162,69.936485 
	C27.966162,69.936485 27.941458,70.003548 27.967686,70.027817 
z"/>
<path fill="#201E1E" opacity="1.000000" stroke="none" 
	d="
M145.999939,74.885002 
	C145.375244,77.728203 144.750595,80.096619 144.125946,82.465034 
	C143.417526,80.013748 142.369461,77.600883 142.086700,75.101448 
	C141.733307,71.977509 141.821747,68.765770 142.099091,65.625465 
	C142.223206,64.219986 143.271225,62.896091 143.899979,61.535172 
	C144.594284,62.828999 145.748032,64.074951 145.888855,65.426453 
	C146.197937,68.392700 145.994293,71.412361 145.999939,74.885002 
z"/>
<path fill="#1F1D1D" opacity="1.000000" stroke="none" 
	d="
M19.238165,83.199081 
	C19.764669,81.326324 20.379017,79.809822 20.993366,78.293327 
	C21.901320,78.815964 23.505371,79.256081 23.579058,79.877625 
	C23.758116,81.387993 23.226095,82.982666 22.980526,84.543381 
	C21.762354,84.214035 20.544182,83.884689 19.238165,83.199081 
z"/>
<path fill="#0F63A3" opacity="1.000000" stroke="none" 
	d="
M32.401703,42.692886 
	C31.942801,44.630898 31.216091,46.276745 30.489380,47.922592 
	C29.672895,46.910690 28.856411,45.898785 28.039927,44.886883 
	C29.404581,44.058159 30.769236,43.229439 32.401703,42.692886 
z"/>
<path fill="#000000" opacity="1.000000" stroke="none" 
	d="
M27.856112,70.316788 
	C29.432709,70.125717 30.899254,70.314957 32.704575,70.718880 
	C31.277584,70.854736 29.511824,70.775909 27.856112,70.316788 
z"/>
<path fill="#000000" opacity="1.000000" stroke="none" 
	d="
M146.187683,40.358948 
	C147.736160,39.595913 149.214615,39.213196 150.693069,38.830475 
	C151.000168,40.178440 151.773651,41.651077 151.457825,42.832516 
	C151.230118,43.684353 149.552155,44.148506 148.521057,44.785583 
	C147.719925,43.436810 146.918793,42.088039 146.187683,40.358948 
z"/>
<path fill="#000000" opacity="1.000000" stroke="none" 
	d="
M103.594360,11.040866 
	C109.205292,13.898237 106.902786,18.714178 106.515945,22.588982 
	C106.358856,24.162535 103.107857,25.427206 101.264633,26.832420 
	C100.846405,26.472189 100.428185,26.111958 100.009956,25.751724 
	C100.009956,21.635580 99.830956,17.505344 100.153000,13.414554 
	C100.221771,12.541019 102.110062,11.810724 103.594360,11.040866 
z"/>
<path fill="#000000" opacity="1.000000" stroke="none" 
	d="
M130.804688,78.825417 
	C129.297424,77.903763 127.449875,77.077400 127.241692,75.948669 
	C126.766487,73.372192 126.881432,70.621597 127.203171,67.996460 
	C127.326935,66.986603 128.526398,65.585342 129.484863,65.341446 
	C130.540344,65.072853 132.229813,65.576172 133.032867,66.364693 
	C135.247055,68.538872 133.911438,76.655792 130.804688,78.825417 
z"/>
<path fill="#000000" opacity="1.000000" stroke="none" 
	d="
M131.505829,52.419014 
	C127.266762,53.331829 126.370262,50.310669 126.390297,47.835472 
	C126.415413,44.733093 127.615028,41.640228 128.307709,38.543251 
	C129.987335,39.087162 132.882294,39.300087 133.136169,40.232296 
	C134.233597,44.261833 135.426010,48.608963 131.505829,52.419014 
z"/>
</svg>