<?xml version="1.0" standalone="no"?>
<svg xmlns:xlink="http://www.w3.org/1999/xlink" id="wave" style="transform:rotate(180deg); transition: 0.3s" viewBox="0 0 1440 490" version="1.1" xmlns="http://www.w3.org/2000/svg"><defs><linearGradient id="sw-gradient-0" x1="0" x2="0" y1="1" y2="0"><stop stop-color="rgba(243, 106, 62, 1)" offset="0%"/><stop stop-color="rgba(255, 179, 11, 1)" offset="100%"/></linearGradient></defs><path style="transform:translate(0, 0px); opacity:1" fill="url(#sw-gradient-0)" d="M0,98L120,81.7C240,65,480,33,720,73.5C960,114,1200,229,1440,228.7C1680,229,1920,114,2160,57.2C2400,0,2640,0,2880,8.2C3120,16,3360,33,3600,32.7C3840,33,4080,16,4320,8.2C4560,0,4800,0,5040,73.5C5280,147,5520,294,5760,302.2C6000,310,6240,180,6480,155.2C6720,131,6960,212,7200,220.5C7440,229,7680,163,7920,179.7C8160,196,8400,294,8640,302.2C8880,310,9120,229,9360,187.8C9600,147,9840,147,10080,155.2C10320,163,10560,180,10800,155.2C11040,131,11280,65,11520,65.3C11760,65,12000,131,12240,179.7C12480,229,12720,261,12960,253.2C13200,245,13440,196,13680,147C13920,98,14160,49,14400,73.5C14640,98,14880,196,15120,253.2C15360,310,15600,327,15840,343C16080,359,16320,376,16560,326.7C16800,278,17040,163,17160,106.2L17280,49L17280,490L17160,490C17040,490,16800,490,16560,490C16320,490,16080,490,15840,490C15600,490,15360,490,15120,490C14880,490,14640,490,14400,490C14160,490,13920,490,13680,490C13440,490,13200,490,12960,490C12720,490,12480,490,12240,490C12000,490,11760,490,11520,490C11280,490,11040,490,10800,490C10560,490,10320,490,10080,490C9840,490,9600,490,9360,490C9120,490,8880,490,8640,490C8400,490,8160,490,7920,490C7680,490,7440,490,7200,490C6960,490,6720,490,6480,490C6240,490,6000,490,5760,490C5520,490,5280,490,5040,490C4800,490,4560,490,4320,490C4080,490,3840,490,3600,490C3360,490,3120,490,2880,490C2640,490,2400,490,2160,490C1920,490,1680,490,1440,490C1200,490,960,490,720,490C480,490,240,490,120,490L0,490Z"/><defs><linearGradient id="sw-gradient-1" x1="0" x2="0" y1="1" y2="0"><stop stop-color="rgba(243, 106, 62, 1)" offset="0%"/><stop stop-color="rgba(255, 179, 11, 1)" offset="100%"/></linearGradient></defs><path style="transform:translate(0, 50px); opacity:0.9" fill="url(#sw-gradient-1)" d="M0,392L120,351.2C240,310,480,229,720,220.5C960,212,1200,278,1440,310.3C1680,343,1920,343,2160,351.2C2400,359,2640,376,2880,318.5C3120,261,3360,131,3600,106.2C3840,82,4080,163,4320,196C4560,229,4800,212,5040,196C5280,180,5520,163,5760,196C6000,229,6240,310,6480,302.2C6720,294,6960,196,7200,187.8C7440,180,7680,261,7920,261.3C8160,261,8400,180,8640,179.7C8880,180,9120,261,9360,245C9600,229,9840,114,10080,130.7C10320,147,10560,294,10800,318.5C11040,343,11280,245,11520,212.3C11760,180,12000,212,12240,245C12480,278,12720,310,12960,269.5C13200,229,13440,114,13680,114.3C13920,114,14160,229,14400,228.7C14640,229,14880,114,15120,89.8C15360,65,15600,131,15840,204.2C16080,278,16320,359,16560,367.5C16800,376,17040,310,17160,277.7L17280,245L17280,490L17160,490C17040,490,16800,490,16560,490C16320,490,16080,490,15840,490C15600,490,15360,490,15120,490C14880,490,14640,490,14400,490C14160,490,13920,490,13680,490C13440,490,13200,490,12960,490C12720,490,12480,490,12240,490C12000,490,11760,490,11520,490C11280,490,11040,490,10800,490C10560,490,10320,490,10080,490C9840,490,9600,490,9360,490C9120,490,8880,490,8640,490C8400,490,8160,490,7920,490C7680,490,7440,490,7200,490C6960,490,6720,490,6480,490C6240,490,6000,490,5760,490C5520,490,5280,490,5040,490C4800,490,4560,490,4320,490C4080,490,3840,490,3600,490C3360,490,3120,490,2880,490C2640,490,2400,490,2160,490C1920,490,1680,490,1440,490C1200,490,960,490,720,490C480,490,240,490,120,490L0,490Z"/></svg>