<svg version="1.1" id="Layer_1" xmlns="http://www.w3.org/2000/svg" xmlns:xlink="http://www.w3.org/1999/xlink" x="0px" y="0px"
	 width="100%" viewBox="0 0 500 500" enable-background="new 0 0 500 500" xml:space="preserve">
<path fill="#FFFFFF" opacity="1.000000" stroke="none" 
	d="
M289.000000,501.000000 
	C192.666687,501.000000 96.833382,501.000000 1.000051,501.000000 
	C1.000034,334.333405 1.000034,167.666794 1.000017,1.000141 
	C167.666565,1.000094 334.333130,1.000094 500.999756,1.000047 
	C500.999847,167.666519 500.999847,334.333038 500.999939,500.999786 
	C430.500000,501.000000 360.000000,501.000000 289.000000,501.000000 
M236.500000,377.999542 
	C283.570770,377.999542 330.641571,377.999542 377.642609,377.999542 
	C377.642609,292.925079 377.642609,208.679245 377.642609,124.410980 
	C292.959229,124.410980 208.596603,124.410980 124.312813,124.410980 
	C124.312813,209.070908 124.312813,293.320160 124.312813,377.999542 
	C161.582199,377.999542 198.541092,377.999542 236.500000,377.999542 
M370.499878,94.547455 
	C383.115356,94.547455 395.730804,94.547455 408.844177,94.547455 
	C408.844177,125.512177 408.844177,155.915985 408.844177,186.560699 
	C432.232391,186.560699 455.114319,186.560699 478.271942,186.560699 
	C478.372375,184.835632 478.529572,183.369949 478.532593,181.903946 
	C478.614960,141.921051 478.728973,101.938148 478.731964,61.955242 
	C478.733582,40.082050 463.842865,24.647417 443.020752,24.678297 
	C403.537201,24.736851 364.053680,24.783386 324.570129,24.834482 
	C322.811371,24.836760 321.052643,24.834774 319.299042,24.834774 
	C319.299042,48.370956 319.299042,71.263802 319.299042,94.547157 
	C336.233154,94.547157 352.866516,94.547157 370.499878,94.547455 
M187.104187,64.500008 
	C187.104187,52.086578 187.104187,39.673153 187.104187,27.426170 
	C186.116180,27.187086 185.803909,27.045418 185.491577,27.045307 
	C143.690582,27.030354 101.887512,26.777542 60.089485,27.127026 
	C39.671909,27.297743 25.055298,43.052731 25.066179,63.611076 
	C25.087069,103.080605 25.139599,142.550125 25.178711,182.019638 
	C25.180286,183.608887 25.178909,185.198120 25.178909,186.731857 
	C48.836956,186.731857 71.755402,186.731857 95.157669,186.731857 
	C95.157669,156.755753 95.157669,127.044350 95.157669,96.867920 
	C126.026764,96.867920 156.412949,96.867920 187.104218,96.867920 
	C187.104218,86.099548 187.104218,75.799782 187.104187,64.500008 
M29.736296,454.598267 
	C35.191845,469.437836 47.488773,478.041107 63.372150,478.045715 
	C102.864983,478.057098 142.357819,478.041931 181.850647,478.024384 
	C183.468964,478.023682 185.087204,477.890350 186.702789,477.818939 
	C186.702789,454.465302 186.702789,431.443604 186.702789,407.936035 
	C156.871490,407.936035 127.462227,407.936035 97.516006,407.936035 
	C97.516006,377.049774 97.516006,346.650421 97.516006,316.322449 
	C74.051933,316.322449 51.134094,316.322449 28.081972,316.322449 
	C28.013693,317.449066 27.921673,318.261719 27.921326,319.074432 
	C27.903591,360.399994 27.855288,401.725616 27.950256,443.050934 
	C27.958534,446.652252 28.915119,450.251434 29.736296,454.598267 
z"/>
<path fill="#919191" opacity="1.000000" stroke="none" 
	d="
M236.000000,377.999542 
	C198.541092,377.999542 161.582199,377.999542 124.312813,377.999542 
	C124.312813,293.320160 124.312813,209.070908 124.312813,124.410980 
	C208.596603,124.410980 292.959229,124.410980 377.642609,124.410980 
	C377.642609,208.679245 377.642609,292.925079 377.642609,377.999542 
	C330.641571,377.999542 283.570770,377.999542 236.000000,377.999542 
z"/>
<path fill="#01BF64" opacity="1.000000" stroke="none" 
	d="
M369.999878,94.547302 
	C352.866516,94.547157 336.233154,94.547157 319.299042,94.547157 
	C319.299042,71.263802 319.299042,48.370956 319.299042,24.834774 
	C321.052643,24.834774 322.811371,24.836760 324.570129,24.834482 
	C364.053680,24.783386 403.537201,24.736851 443.020752,24.678297 
	C463.842865,24.647417 478.733582,40.082050 478.731964,61.955242 
	C478.728973,101.938148 478.614960,141.921051 478.532593,181.903946 
	C478.529572,183.369949 478.372375,184.835632 478.271942,186.560699 
	C455.114319,186.560699 432.232391,186.560699 408.844177,186.560699 
	C408.844177,155.915985 408.844177,125.512177 408.844177,94.547455 
	C395.730804,94.547455 383.115356,94.547455 369.999878,94.547302 
z"/>
<path fill="#FF3131" opacity="1.000000" stroke="none" 
	d="
M187.104202,65.000015 
	C187.104218,75.799782 187.104218,86.099548 187.104218,96.867920 
	C156.412949,96.867920 126.026764,96.867920 95.157669,96.867920 
	C95.157669,127.044350 95.157669,156.755753 95.157669,186.731857 
	C71.755402,186.731857 48.836956,186.731857 25.178909,186.731857 
	C25.178909,185.198120 25.180286,183.608887 25.178711,182.019638 
	C25.139599,142.550125 25.087069,103.080605 25.066179,63.611076 
	C25.055298,43.052731 39.671909,27.297743 60.089485,27.127026 
	C101.887512,26.777542 143.690582,27.030354 185.491577,27.045307 
	C185.803909,27.045418 186.116180,27.187086 187.104187,27.426170 
	C187.104187,39.673153 187.104187,52.086578 187.104202,65.000015 
z"/>
<path fill="#FAC901" opacity="1.000000" stroke="none" 
	d="
M29.583759,454.224915 
	C28.915119,450.251434 27.958534,446.652252 27.950256,443.050934 
	C27.855288,401.725616 27.903591,360.399994 27.921326,319.074432 
	C27.921673,318.261719 28.013693,317.449066 28.081972,316.322449 
	C51.134094,316.322449 74.051933,316.322449 97.516006,316.322449 
	C97.516006,346.650421 97.516006,377.049774 97.516006,407.936035 
	C127.462227,407.936035 156.871490,407.936035 186.702789,407.936035 
	C186.702789,431.443604 186.702789,454.465302 186.702789,477.818939 
	C185.087204,477.890350 183.468964,478.023682 181.850647,478.024384 
	C142.357819,478.041931 102.864983,478.057098 63.372150,478.045715 
	C47.488773,478.041107 35.191845,469.437836 29.583759,454.224915 
z"/>
</svg>